<?xml version="1.0" encoding="UTF-8"?>
<svg enable-background="new 0 0 32 32" version="1.1" viewBox="0 0 32 32" xml:space="preserve" xmlns="http://www.w3.org/2000/svg">
  <style type="text/css">
    .st0{fill:none;stroke:#000000;stroke-width:2;stroke-linecap:round;stroke-linejoin:round;stroke-miterlimit:10;}
  </style>
  <path d="m27.5 24c1.6-2.3 2.5-5 2.5-8 0-2.7-0.8-5.2-2.1-7.3 0-0.1-0.1-0.1-0.1-0.2-2.5-3.9-6.8-6.5-11.8-6.5s-9.4 2.6-11.8 6.6c0 0.1-0.1 0.1-0.1 0.2-1.3 2.1-2 4.6-2 7.3 0 3 0.9 5.7 2.5 8l0.1 0.1c2.4 3.5 6.6 5.8 11.3 5.8s8.8-2.3 11.4-5.8c0-0.1 0-0.1 0.1-0.2zm-1.5-1.5-3.6 0.5-1.4-1.4 2-5.8 3.1-1.5 2 1.2v0.7c-0.1 2.2-0.8 4.5-2.1 6.3zm-0.1-13.2-0.8 3-3.2 1.6-4.9-3.4v-3.9l3.4-1.7c2.3 0.9 4.2 2.4 5.5 4.4zm-14.4-4.4 3.5 1.7v3.9l-4.9 3.5-3.3-1.6-0.8-3.1c1.4-2 3.3-3.5 5.5-4.4zm-7.5 10.4 2-1.2 3.1 1.6 2 5.8-1.4 1.4-3.7-0.4c-1.3-1.9-2-4.1-2-6.5v-0.7zm8.9 12.3-1.7-3.4 1.2-1.2h7.2l1.2 1.2-1.7 3.4c-1 0.3-2 0.4-3.1 0.4s-2.1-0.2-3.1-0.4z"/>
</svg>
