<svg width="85" height="89" viewBox="0 0 85 89" fill="none" xmlns="http://www.w3.org/2000/svg">
  <path d="M77.3 17.6C78.1 18.3 79 18.6 80 18.6C81.1 18.6 82.2 18.2 83 17.3C84.5 15.7 84.4 13.1 82.7 11.6L77.5 6.9L72.3 2.2C70.7 0.700003 68.1 0.800003 66.7 2.5C65.2 4.1 65.3 6.7 67 8.2L69.2 10.2L65.2 14.7C60.6 11.3 55.3 8.8 49.5 7.5C49.4 6.2 48.9 4.8 47.9 3.5C46.9 2.1 44.8 0.500003 41 0.300003C40.9 0.300003 40.9 0.300003 40.8 0.300003C37.3 0.300003 35.3 1.8 34.2 3.1C33 4.5 32.5 6.2 32.3 7.5C13.8 11.4 0 27.8 0 47.4C0 69.9 18.3 88.3 40.8 88.3C63.3 88.3 81.6 70 81.6 47.4C81.6 36.9 77.6 27.3 71.1 20L75.1 15.5L77.3 17.6ZM40.8 80.2C22.7 80.2 8 65.5 8 47.4C8 29.3 22.7 14.6 40.8 14.6C58.9 14.6 73.6 29.3 73.6 47.4C73.6 65.5 58.9 80.2 40.8 80.2ZM47.8 47.4C47.8 51.2 44.6 54.3 40.8 54.3C37 54.3 34 51.2 34 47.4C34 45.1 35 43 37 41.8V25.6C37 23.4 38.8 21.6 41 21.6C43.2 21.6 45 23.4 45 25.6V41.8C47 43 47.8 45.1 47.8 47.4Z" fill="white"/>
  <line x1="4.54172" y1="8.59383" x2="75.5417" y2="83.5938" stroke="white" stroke-width="7"/>
</svg>
